<?xml version="1.0" encoding="utf-8"?>
<!-- Generator: Adobe Illustrator 16.0.0, SVG Export Plug-In . SVG Version: 6.00 Build 0)  -->
<!DOCTYPE svg PUBLIC "-//W3C//DTD SVG 1.0//EN" "http://www.w3.org/TR/2001/REC-SVG-20010904/DTD/svg10.dtd">
<svg version="1.0" xmlns="http://www.w3.org/2000/svg" xmlns:xlink="http://www.w3.org/1999/xlink" x="0px" y="0px"
	 width="923.04px" height="1016.235px" viewBox="0 0 923.04 1016.235" enable-background="new 0 0 923.04 1016.235"
	 xml:space="preserve">
<g id="Cube">
	<g>
		<path fill="#E74C3C" d="M448.663,881.42v132.018L0,763.875V248.747l215.321,119.767c-11.139,35.589-17.66,74.067-18.627,114.315
			c-4.228,176.369,99.843,323.979,237.199,344.592l-37.862,52.746L448.663,881.42z"/>
	</g>
	<g>
		<path fill="#E74C3C" d="M923.04,251.441v515.243l-448.662,249.552V882.038l50.225,1.203l-35.301-54.494
			c138.189-14.009,249.203-156.477,253.431-332.835c1.141-47.705-5.647-93.313-18.875-134.866L923.04,251.441z"/>
	</g>
	<g>
		<path fill="#E74C3C" d="M908.547,230.067L715.124,336.514c-43.158-109.213-132.428-185.081-237.27-187.591
			c-110.911-2.654-208.358,77.534-253.913,194.966L14.503,227.393L461.53-0.075L908.547,230.067z"/>
	</g>
</g>
<g id="B">
	<g>
		<path fill="#444444" d="M639.555,324.974c13.796,19.177,20.701,42.122,20.701,68.841c0,27.537-6.97,49.671-20.888,66.393
			c-7.782,9.383-19.249,17.952-34.397,25.702c23.016,8.365,40.383,21.623,52.097,39.774c11.708,18.155,17.567,40.185,17.567,66.086
			c0,26.725-6.691,50.688-20.078,71.9c-8.521,14.073-19.165,25.906-31.942,35.491c-14.395,11.013-31.38,18.563-50.956,22.639
			c-19.572,4.085-40.811,6.121-63.725,6.121H304.731V276.939h217.943C577.664,277.757,616.625,293.767,639.555,324.974z
			 M394.683,355.264v99.435h109.612c19.581,0,35.476-3.718,47.687-11.166c12.211-7.443,18.321-20.653,18.321-39.623
			c0-21.004-8.073-34.879-24.226-41.609c-13.928-4.69-31.691-7.037-53.291-7.037H394.683z M394.683,529.354v120.242h109.491
			c19.55,0,34.78-2.648,45.669-7.955c19.757-9.791,29.639-28.553,29.639-56.297c0-23.452-9.579-39.569-28.729-48.341
			c-10.689-4.896-25.712-7.442-45.067-7.649H394.683z"/>
	</g>
</g>
</svg>
