<?xml version="1.0" encoding="utf-8"?>
<!-- Generator: Adobe Illustrator 16.0.0, SVG Export Plug-In . SVG Version: 6.00 Build 0)  -->
<!DOCTYPE svg PUBLIC "-//W3C//DTD SVG 1.1//EN" "http://www.w3.org/Graphics/SVG/1.1/DTD/svg11.dtd">
<svg version="1.1" id="Layer_1" xmlns="http://www.w3.org/2000/svg" xmlns:xlink="http://www.w3.org/1999/xlink" x="0px" y="0px"
	 width="340.651px" height="450.74px" viewBox="0 0 340.651 450.74" enable-background="new 0 0 340.651 450.74"
	 xml:space="preserve">
<polygon opacity="0.92" fill="#590C27" points="257.004,166.938 170.487,214.979 170.167,313.131 256.533,361.3 340.651,312.234 
	340.215,214.859 "/>
<polygon opacity="0.95" fill="#FFC40F" points="86.365,166.405 0,214.672 0.431,312.049 84.985,360.362 170.167,313.025 
	170.487,214.979 "/>
<polygon opacity="0.66" fill="#EC2024" points="257.004,166.938 171.814,117.426 86.365,166.405 86.101,264.896 170.167,313.131 
	256.732,265.431 "/>
<g>
	<path fill="#555555" d="M32.225,415.005c0,6.231-1.38,11.178-4.139,14.838c-2.76,3.658-6.467,5.486-11.123,5.486
		c-5.568,0-9.781-2.068-12.639-6.208l-0.185,5.469H0v-56.761h4.397v22.578c2.809-4.359,6.972-6.541,12.491-6.541
		c4.73,0,8.468,1.805,11.215,5.414c2.747,3.609,4.121,8.629,4.121,15.06V415.005z M27.79,414.229c0-5.271-1.022-9.344-3.067-12.213
		c-2.045-2.87-4.928-4.306-8.647-4.306c-2.833,0-5.236,0.696-7.206,2.088c-1.972,1.392-3.462,3.431-4.472,6.116v18.034
		c2.218,5.025,6.135,7.539,11.752,7.539c3.646,0,6.498-1.441,8.555-4.324C26.761,424.279,27.79,419.97,27.79,414.229z"/>
	<path fill="#555555" d="M46.933,434.59h-4.435v-56.761h4.435V434.59z"/>
	<path fill="#555555" d="M56.504,414.007c0-3.844,0.744-7.305,2.235-10.384c1.49-3.081,3.597-5.477,6.319-7.188
		c2.723-1.712,5.808-2.568,9.257-2.568c5.322,0,9.633,1.866,12.934,5.599s4.952,8.68,4.952,14.837v0.924
		c0,3.869-0.745,7.35-2.235,10.44c-1.491,3.092-3.591,5.476-6.301,7.15c-2.71,1.677-5.802,2.513-9.276,2.513
		c-5.297,0-9.602-1.866-12.916-5.599c-3.313-3.731-4.97-8.677-4.97-14.837V414.007z M60.938,415.226
		c0,4.78,1.238,8.704,3.714,11.771c2.476,3.067,5.722,4.601,9.737,4.601c3.992,0,7.225-1.533,9.701-4.601
		c2.476-3.066,3.714-7.113,3.714-12.139v-0.851c0-3.055-0.567-5.851-1.7-8.389c-1.134-2.537-2.723-4.502-4.768-5.895
		c-2.045-1.391-4.386-2.087-7.021-2.087c-3.941,0-7.157,1.547-9.645,4.637c-2.489,3.092-3.733,7.14-3.733,12.14V415.226z"/>
	<path fill="#555555" d="M116.111,431.597c3.079,0,5.66-0.867,7.742-2.604c2.082-1.738,3.209-3.986,3.381-6.744h4.25
		c-0.124,2.438-0.887,4.661-2.291,6.669c-1.404,2.008-3.271,3.58-5.599,4.712c-2.328,1.133-4.823,1.699-7.483,1.699
		c-5.248,0-9.405-1.822-12.472-5.469c-3.067-3.646-4.602-8.549-4.602-14.709v-1.328c0-3.942,0.69-7.429,2.07-10.459
		c1.379-3.03,3.356-5.371,5.931-7.022c2.574-1.649,5.586-2.476,9.036-2.476c4.384,0,8,1.307,10.846,3.918
		c2.846,2.611,4.367,6.048,4.564,10.31h-4.25c-0.197-3.128-1.324-5.654-3.381-7.576c-2.057-1.92-4.65-2.881-7.778-2.881
		c-3.991,0-7.09,1.439-9.294,4.323c-2.205,2.882-3.308,6.924-3.308,12.121v1.293c0,5.1,1.103,9.079,3.308,11.936
		C108.985,430.169,112.096,431.597,116.111,431.597z"/>
	<path fill="#555555" d="M149.814,414.451l-5.063,4.878v15.261h-4.435v-56.761h4.435v36.325l4.176-4.509l15.299-15.04h5.581
		l-16.963,16.851l18.44,23.134H166L149.814,414.451z"/>
	<path fill="#555555" d="M209.533,415.005c0,6.231-1.381,11.178-4.139,14.838c-2.761,3.658-6.455,5.486-11.087,5.486
		c-5.469,0-9.657-1.922-12.565-5.764v20.397h-4.397v-55.357h4.101l0.223,5.654c2.881-4.262,7.058-6.394,12.526-6.394
		c4.781,0,8.531,1.811,11.255,5.433c2.722,3.622,4.083,8.647,4.083,15.077V415.005z M205.099,414.229
		c0-5.1-1.048-9.128-3.141-12.083c-2.096-2.957-5.014-4.436-8.759-4.436c-2.711,0-5.039,0.653-6.984,1.958
		c-1.947,1.308-3.437,3.203-4.472,5.691v19.179c1.059,2.292,2.575,4.041,4.545,5.248c1.973,1.207,4.3,1.811,6.984,1.811
		c3.722,0,6.622-1.483,8.704-4.453C204.057,424.177,205.099,419.871,205.099,414.229z"/>
	<path fill="#555555" d="M244.566,434.59c-0.443-1.255-0.727-3.116-0.85-5.579c-1.553,2.021-3.531,3.579-5.932,4.675
		c-2.401,1.095-4.945,1.644-7.632,1.644c-3.842,0-6.953-1.071-9.33-3.214c-2.378-2.144-3.567-4.854-3.567-8.13
		c0-3.894,1.619-6.974,4.86-9.239c3.24-2.267,7.753-3.399,13.542-3.399h8.021V406.8c0-2.856-0.881-5.105-2.644-6.743
		c-1.761-1.639-4.328-2.458-7.705-2.458c-3.078,0-5.628,0.79-7.647,2.365c-2.021,1.577-3.03,3.475-3.03,5.69l-4.435-0.036
		c0-3.179,1.477-5.931,4.435-8.259c2.955-2.328,6.59-3.493,10.901-3.493c4.459,0,7.977,1.116,10.549,3.345
		c2.576,2.23,3.899,5.341,3.974,9.332v18.919c0,3.869,0.407,6.764,1.22,8.686v0.442H244.566z M230.669,431.412
		c2.96,0,5.601-0.714,7.929-2.144c2.328-1.428,4.021-3.337,5.081-5.728v-8.795h-7.909c-4.41,0.05-7.857,0.856-10.346,2.42
		c-2.489,1.565-3.733,3.714-3.733,6.448c0,2.243,0.833,4.104,2.495,5.581S228.011,431.412,230.669,431.412z"/>
	<path fill="#555555" d="M278.342,398.376c-0.935-0.174-1.934-0.26-2.993-0.26c-2.758,0-5.095,0.771-7.002,2.311
		c-1.91,1.54-3.271,3.773-4.084,6.708v27.455h-4.398v-39.984h4.324l0.074,6.357c2.34-4.731,6.097-7.097,11.272-7.097
		c1.229,0,2.202,0.161,2.918,0.481L278.342,398.376z"/>
	<path fill="#555555" d="M294.047,384.369v10.236h8.278v3.621h-8.278v26.675c0,2.22,0.401,3.872,1.201,4.957
		c0.801,1.085,2.138,1.629,4.011,1.629c0.739,0,1.934-0.124,3.584-0.371l0.185,3.591c-1.156,0.415-2.734,0.622-4.73,0.622
		c-3.029,0-5.234-0.88-6.614-2.641c-1.379-1.763-2.069-4.355-2.069-7.779v-26.683h-7.354v-3.621h7.354v-10.236H294.047z"/>
	<path fill="#555555" d="M324.166,428.235l11.677-33.63h4.768l-17.073,46.784l-0.888,2.07c-2.193,4.853-5.579,7.28-10.162,7.28
		c-1.06,0-2.193-0.174-3.399-0.519l-0.037-3.658l2.292,0.222c2.167,0,3.923-0.536,5.266-1.608c1.341-1.07,2.48-2.912,3.419-5.523
		l1.957-5.396l-15.076-39.652h4.84L324.166,428.235z"/>
</g>
<g id="CIrcles">
	<g>
		<ellipse fill="#FFC40F" cx="148.774" cy="141.542" rx="15.114" ry="16.332"/>
		<polyline fill="#FFC40F" points="148.703,156.244 147.029,158.586 150.52,158.586 		"/>
	</g>
	<g>
		<ellipse fill="#FFC40F" cx="199.897" cy="42.979" rx="16.786" ry="18.136"/>
		<polyline fill="#FFC40F" points="199.818,59.305 197.958,61.907 201.837,61.907 		"/>
	</g>
	<g>
		<ellipse fill="#FFC40F" cx="167.979" cy="13.715" rx="12.694" ry="13.716"/>
		<polyline fill="#FFC40F" points="167.921,26.062 166.512,28.029 169.447,28.029 		"/>
	</g>
	<g>
		<path fill="#FFC40F" d="M216.683,103.033c0,14.57-10.931,26.381-24.413,26.381c-13.482,0-24.412-11.811-24.412-26.381
			c0-14.566,10.93-26.379,24.412-26.379C205.752,76.654,216.683,88.467,216.683,103.033z"/>
		<polyline fill="#FFC40F" points="192.156,126.78 189.45,130.564 195.093,130.564 		"/>
	</g>
	<g>
		<path fill="#FFC40F" d="M167.979,64.125c0,11.462-8.599,20.752-19.205,20.752s-19.205-9.291-19.205-20.752
			c0-11.458,8.599-20.75,19.205-20.75S167.979,52.667,167.979,64.125z"/>
		<polyline fill="#FFC40F" points="148.685,82.805 146.555,85.781 150.994,85.781 		"/>
	</g>
</g>
</svg>
