<?xml version="1.0" encoding="utf-8"?>
<!-- Generator: Adobe Illustrator 16.0.0, SVG Export Plug-In . SVG Version: 6.00 Build 0)  -->
<!DOCTYPE svg PUBLIC "-//W3C//DTD SVG 1.0//EN" "http://www.w3.org/TR/2001/REC-SVG-20010904/DTD/svg10.dtd">
<svg version="1.0" xmlns="http://www.w3.org/2000/svg" xmlns:xlink="http://www.w3.org/1999/xlink" x="0px" y="0px"
	 width="923.04px" height="1016.235px" viewBox="0 0 923.04 1016.235" enable-background="new 0 0 923.04 1016.235"
	 xml:space="preserve">
<g id="Cube">
	<g>
		<path fill="#E74C3C" d="M448.663,881.42v132.018L0,763.875V248.747l215.321,119.767c-11.139,35.589-17.66,74.067-18.627,114.315
			c-4.228,176.369,99.843,323.979,237.199,344.592l-37.862,52.746L448.663,881.42z"/>
	</g>
	<g>
		<path fill="#E74C3C" d="M923.04,251.441v515.243l-448.662,249.552V882.038l50.225,1.203l-35.301-54.494
			c138.189-14.009,249.203-156.477,253.431-332.835c1.141-47.705-5.647-93.313-18.875-134.866L923.04,251.441z"/>
	</g>
	<g>
		<path fill="#E74C3C" d="M908.547,230.067L715.124,336.514c-43.158-109.213-132.428-185.081-237.27-187.591
			c-110.911-2.654-208.358,77.534-253.913,194.966L14.503,227.393L461.53-0.075L908.547,230.067z"/>
	</g>
</g>
<g id="B">
	<g>
		<path fill="#444444" d="M617.421,351.182c11.759,16.345,17.644,35.901,17.644,58.674c0,23.47-5.94,42.335-17.803,56.588
			c-6.634,7.998-16.406,15.3-29.318,21.906c19.617,7.129,34.42,18.429,44.403,33.9c9.979,15.474,14.973,34.249,14.973,56.325
			c0,22.778-5.703,43.202-17.112,61.282c-7.263,11.994-16.336,22.081-27.226,30.25c-12.268,9.386-26.745,15.821-43.43,19.295
			c-16.683,3.482-34.783,5.218-54.313,5.218H332.046V310.242h185.755C564.669,310.939,597.878,324.583,617.421,351.182z
			 M408.713,376.999v84.75h93.423c16.689,0,30.237-3.169,40.645-9.518c10.406-6.344,15.615-17.603,15.615-33.771
			c0-17.901-6.88-29.728-20.647-35.464c-11.871-3.998-27.012-5.998-45.422-5.998H408.713z M408.713,525.378v102.483h93.321
			c16.662,0,29.643-2.258,38.923-6.78c16.841-8.346,25.262-24.336,25.262-47.982c0-19.989-8.163-33.727-24.486-41.202
			c-9.109-4.171-21.915-6.343-38.41-6.519H408.713z"/>
	</g>
</g>
</svg>
