<?xml version="1.0" encoding="utf-8"?>
<!-- Generator: Adobe Illustrator 16.0.0, SVG Export Plug-In . SVG Version: 6.00 Build 0)  -->
<!DOCTYPE svg PUBLIC "-//W3C//DTD SVG 1.1//EN" "http://www.w3.org/Graphics/SVG/1.1/DTD/svg11.dtd">
<svg version="1.1" id="Layer_1" xmlns="http://www.w3.org/2000/svg" xmlns:xlink="http://www.w3.org/1999/xlink" x="0px" y="0px"
	 width="398.167px" height="248.5px" viewBox="0 0 398.167 248.5" enable-background="new 0 0 398.167 248.5" xml:space="preserve">
<rect fill="#60A8C5" width="248.5" height="248.5"/>
<g>
	<path fill="#FFFFFF" d="M34.157,97.039h-5.079V36.093h5.079v24.125c1.636-2.708,3.879-4.753,6.729-6.137
		c2.849-1.382,5.826-2.074,8.93-2.074c3.329,0,6.222,0.635,8.676,1.905c2.455,1.27,4.486,2.962,6.095,5.079s2.807,4.586,3.598,7.407
		c0.79,2.823,1.185,5.756,1.185,8.804c0,3.216-0.368,6.236-1.101,9.057c-0.734,2.822-1.904,5.263-3.513,7.322
		c-1.608,2.061-3.654,3.682-6.137,4.867c-2.484,1.186-5.502,1.778-9.057,1.778c-1.411,0-2.85-0.198-4.317-0.592
		c-1.468-0.396-2.893-0.959-4.275-1.693c-1.383-0.732-2.653-1.65-3.809-2.751c-1.157-1.1-2.103-2.383-2.835-3.852h-0.169V97.039z
		 M34.157,74.946c0,2.653,0.324,5.122,0.973,7.407c0.648,2.286,1.594,4.262,2.836,5.925c1.241,1.666,2.793,2.978,4.656,3.937
		c1.862,0.96,3.978,1.439,6.349,1.439c2.144,0,4.118-0.381,5.925-1.143c1.805-0.762,3.386-1.875,4.74-3.343
		c1.354-1.467,2.412-3.259,3.174-5.375c0.762-2.116,1.143-4.556,1.143-7.322c0.112-2.764-0.114-5.346-0.677-7.745
		c-0.565-2.398-1.468-4.5-2.708-6.307c-1.242-1.805-2.836-3.229-4.783-4.274c-1.947-1.043-4.219-1.566-6.814-1.566
		c-2.315,0-4.389,0.495-6.222,1.481c-1.834,0.988-3.386,2.315-4.656,3.979c-1.27,1.666-2.243,3.612-2.92,5.841
		C34.495,70.108,34.157,72.463,34.157,74.946z"/>
	<path fill="#FFFFFF" d="M123.29,97.039V36.093h5.079v60.946H123.29z"/>
	<path fill="#FFFFFF" d="M201.08,98.224c-2.822-0.057-5.46-0.565-7.915-1.523c-2.454-0.959-4.6-2.398-6.433-4.317
		c-1.835-1.917-3.288-4.317-4.359-7.195c-1.073-2.878-1.608-6.235-1.608-10.073c0-3.216,0.423-6.222,1.27-9.015
		c0.847-2.793,2.116-5.234,3.81-7.322c1.692-2.087,3.809-3.738,6.348-4.952c2.54-1.213,5.503-1.82,8.889-1.82
		c3.441,0,6.433,0.607,8.973,1.82c2.539,1.214,4.655,2.85,6.349,4.909c1.692,2.061,2.948,4.501,3.767,7.322
		c0.817,2.822,1.228,5.841,1.228,9.057c0,3.5-0.48,6.66-1.439,9.48c-0.96,2.823-2.327,5.249-4.105,7.28
		c-1.777,2.032-3.923,3.598-6.433,4.698C206.906,97.674,204.127,98.224,201.08,98.224z M215.978,75.115
		c0-2.595-0.282-5.022-0.846-7.28c-0.565-2.256-1.439-4.218-2.625-5.883c-1.185-1.664-2.708-2.976-4.57-3.936
		c-1.862-0.959-4.147-1.439-6.856-1.439c-2.653,0-4.924,0.522-6.814,1.566c-1.892,1.045-3.428,2.427-4.613,4.147
		c-1.185,1.722-2.061,3.697-2.624,5.925c-0.564,2.23-0.847,4.529-0.847,6.899c0,2.709,0.324,5.206,0.974,7.491
		c0.648,2.286,1.594,4.247,2.836,5.883c1.24,1.637,2.793,2.907,4.655,3.809c1.862,0.903,4.007,1.354,6.434,1.354
		c2.651,0,4.923-0.521,6.813-1.566c1.891-1.044,3.429-2.44,4.613-4.19c1.186-1.749,2.06-3.724,2.625-5.925
		C215.695,79.771,215.978,77.485,215.978,75.115z"/>
	<path fill="#231F20" d="M304.096,66.989c-0.903-3.272-2.455-5.826-4.655-7.661c-2.201-1.833-4.994-2.751-8.38-2.751
		c-2.597,0-4.825,0.537-6.688,1.608c-1.862,1.072-3.386,2.497-4.571,4.274c-1.185,1.778-2.061,3.781-2.624,6.01
		c-0.564,2.229-0.847,4.473-0.847,6.729c0,2.314,0.268,4.571,0.805,6.771c0.535,2.201,1.396,4.177,2.582,5.925
		c1.185,1.75,2.708,3.146,4.57,4.19c1.862,1.044,4.119,1.566,6.772,1.566c3.779,0,6.813-1.044,9.1-3.132
		c2.285-2.087,3.737-4.965,4.359-8.634h5.417c-0.452,2.427-1.172,4.642-2.158,6.645c-0.988,2.004-2.258,3.725-3.81,5.164
		c-1.553,1.439-3.4,2.554-5.544,3.344c-2.146,0.79-4.601,1.185-7.364,1.185c-3.5,0-6.519-0.592-9.058-1.778
		c-2.539-1.185-4.628-2.806-6.264-4.867c-1.638-2.059-2.851-4.5-3.641-7.322c-0.79-2.821-1.185-5.841-1.185-9.057
		c0-3.047,0.437-5.968,1.312-8.761s2.159-5.261,3.852-7.407c1.693-2.144,3.795-3.852,6.307-5.121
		c2.511-1.27,5.403-1.905,8.677-1.905c5.078,0,9.184,1.214,12.315,3.64c3.133,2.427,5.093,6.208,5.884,11.343H304.096z"/>
	<path fill="#231F20" d="M362.079,97.039V36.093h5.079v37.922l21.5-20.824h6.941l-16.422,15.829l18.369,28.019h-5.672
		l-16.422-24.463l-8.295,7.873v16.591H362.079z"/>
	<path fill="#FFFFFF" d="M34.157,215.884h-5.079v-61.116h5.079v7.703h0.169c0.732-1.41,1.678-2.68,2.835-3.809
		c1.156-1.128,2.426-2.06,3.809-2.793c1.382-0.733,2.807-1.297,4.275-1.693c1.467-0.394,2.906-0.593,4.317-0.593
		c3.555,0,6.573,0.593,9.057,1.778c2.483,1.185,4.529,2.808,6.137,4.867c1.608,2.061,2.779,4.501,3.513,7.322
		c0.733,2.822,1.101,5.84,1.101,9.057c0,3.047-0.396,5.982-1.185,8.803c-0.791,2.823-1.989,5.291-3.598,7.407
		s-3.64,3.809-6.095,5.079c-2.455,1.27-5.347,1.905-8.676,1.905c-3.104,0-6.082-0.692-8.93-2.074
		c-2.851-1.382-5.094-3.428-6.729-6.137V215.884z M34.157,176.862c0,2.484,0.338,4.839,1.016,7.068
		c0.677,2.23,1.651,4.177,2.92,5.841c1.27,1.665,2.821,2.992,4.656,3.979c1.833,0.988,3.907,1.481,6.222,1.481
		c2.595,0,4.867-0.521,6.814-1.566c1.947-1.044,3.541-2.468,4.783-4.275c1.24-1.805,2.144-3.907,2.708-6.306
		c0.563-2.398,0.79-4.98,0.677-7.746c0-2.764-0.381-5.206-1.143-7.322c-0.762-2.116-1.82-3.907-3.174-5.375
		c-1.354-1.467-2.935-2.582-4.74-3.344c-1.807-0.762-3.782-1.143-5.925-1.143c-2.371,0-4.486,0.48-6.349,1.439
		c-1.862,0.96-3.415,2.272-4.656,3.936c-1.242,1.665-2.188,3.64-2.836,5.925C34.48,171.741,34.157,174.21,34.157,176.862z"/>
	<path fill="#FFFFFF" d="M142.674,173.053c0.959-0.112,2.102-0.282,3.428-0.508c1.325-0.225,2.413-0.536,3.259-0.931
		c0.847-0.394,1.368-1.058,1.566-1.989c0.197-0.931,0.296-1.791,0.296-2.582c0-2.595-0.833-4.726-2.497-6.391
		c-1.665-1.664-4.473-2.497-8.422-2.497c-1.75,0-3.358,0.156-4.825,0.465c-1.468,0.311-2.751,0.847-3.852,1.608
		c-1.101,0.762-2.004,1.778-2.709,3.047c-0.706,1.27-1.172,2.865-1.396,4.783h-5.164c0.169-2.595,0.762-4.811,1.778-6.645
		c1.016-1.833,2.328-3.329,3.936-4.486c1.608-1.156,3.47-2.002,5.586-2.54c2.116-0.536,4.359-0.804,6.729-0.804
		c2.201,0,4.275,0.241,6.222,0.72c1.947,0.48,3.64,1.242,5.079,2.286c1.439,1.044,2.567,2.441,3.386,4.19
		c0.817,1.75,1.228,3.894,1.228,6.433v23.871c0,1.976,0.352,3.231,1.058,3.767c0.705,0.537,2.129,0.41,4.274-0.381v3.979
		c-0.396,0.114-0.973,0.282-1.735,0.508c-0.762,0.225-1.51,0.339-2.243,0.339c-0.791,0-1.553-0.084-2.285-0.254
		c-0.847-0.114-1.524-0.381-2.032-0.804s-0.918-0.931-1.227-1.524c-0.311-0.592-0.522-1.24-0.635-1.947
		c-0.114-0.705-0.169-1.452-0.169-2.243c-2.146,2.37-4.6,4.177-7.365,5.417c-2.765,1.241-5.756,1.862-8.973,1.862
		c-1.919,0-3.767-0.254-5.544-0.762c-1.777-0.508-3.343-1.297-4.698-2.37c-1.354-1.071-2.427-2.383-3.217-3.936
		c-0.791-1.552-1.185-3.399-1.185-5.544c0-7.449,5.107-11.851,15.321-13.205L142.674,173.053z M151.224,175.592
		c-2.145,0.903-4.317,1.496-6.518,1.777c-2.201,0.283-4.402,0.508-6.603,0.677c-3.894,0.283-6.928,1.157-9.1,2.624
		c-2.173,1.468-3.259,3.697-3.259,6.687c0,1.354,0.268,2.526,0.804,3.513c0.536,0.988,1.241,1.807,2.116,2.455
		c0.875,0.649,1.89,1.129,3.047,1.439c1.156,0.311,2.328,0.466,3.513,0.466c2.031,0,4.006-0.254,5.925-0.762
		c1.917-0.508,3.625-1.283,5.121-2.328c1.495-1.043,2.694-2.37,3.598-3.979c0.902-1.608,1.354-3.513,1.354-5.713V175.592z"/>
	<path fill="#FFFFFF" d="M217.249,198.616h-5.079v-43.848h5.079v8.211h0.169c1.41-3.498,3.229-5.938,5.46-7.322
		c2.229-1.382,5.177-2.074,8.846-2.074v5.502c-2.878-0.056-5.248,0.396-7.11,1.354c-1.862,0.96-3.344,2.258-4.444,3.894
		c-1.101,1.637-1.862,3.57-2.285,5.798c-0.424,2.23-0.635,4.558-0.635,6.983V198.616z"/>
	<path fill="#231F20" d="M297.833,198.786c-0.622,0.112-1.439,0.31-2.455,0.592c-1.016,0.282-2.146,0.423-3.386,0.423
		c-2.54,0-4.474-0.635-5.799-1.905c-1.326-1.27-1.989-3.541-1.989-6.814v-32.082h-6.179v-4.232h6.179V142.58h5.079v12.189h8.211
		v4.232h-8.211v30.05c0,1.072,0.027,2.003,0.085,2.793c0.055,0.791,0.225,1.439,0.508,1.947c0.281,0.508,0.719,0.875,1.312,1.1
		c0.593,0.226,1.425,0.339,2.497,0.339c0.678,0,1.368-0.056,2.074-0.169c0.705-0.112,1.396-0.254,2.074-0.423V198.786z"/>
	<path fill="#231F20" d="M347.943,210.467c0.678,0.112,1.368,0.225,2.074,0.339c0.705,0.112,1.424,0.169,2.158,0.169
		c1.41,0,2.567-0.451,3.471-1.352c0.902-0.903,1.65-1.988,2.243-3.255c0.593-1.269,1.086-2.592,1.481-3.972
		c0.394-1.382,0.847-2.55,1.354-3.508l-17.015-44.12h5.672l14.051,37.668l14.052-37.668h5.502l-16.337,43.255
		c-1.016,2.765-1.989,5.249-2.92,7.449c-0.932,2.201-1.919,4.076-2.963,5.629c-1.045,1.552-2.201,2.737-3.471,3.555
		c-1.27,0.817-2.78,1.228-4.528,1.228c-0.903,0-1.765-0.057-2.582-0.169c-0.818-0.114-1.565-0.254-2.243-0.423V210.467z"/>
</g>
</svg>
