<?xml version="1.0" encoding="utf-8"?>
<!-- Generator: Adobe Illustrator 16.0.0, SVG Export Plug-In . SVG Version: 6.00 Build 0)  -->
<!DOCTYPE svg PUBLIC "-//W3C//DTD SVG 1.1//EN" "http://www.w3.org/Graphics/SVG/1.1/DTD/svg11.dtd">
<svg version="1.1" id="Layer_1" xmlns="http://www.w3.org/2000/svg" xmlns:xlink="http://www.w3.org/1999/xlink" x="0px" y="0px"
	 width="165.375px" height="179.203px" viewBox="2.26 20.977 165.375 179.203" enable-background="new 2.26 20.977 165.375 179.203"
	 xml:space="preserve">
<path fill="#C8005A" d="M85.15,103.153c-0.931-4.605,5.177-13.688,7.358-17.153c6.92-10.979,17.299-19.846,29.43-24.541
	c12.202-4.727,26.396-2.305,37.993-8.58c11.787-6.38,9.103-23.311-1.663-29.445c-6.316-3.603-15.566-2.829-22.195-0.328
	C110.613,32.711,78.968,72.493,85.15,103.153z"/>
<path fill="#C8005A" d="M65.039,108.129c-0.627-8.954-1.279-17.464-5.064-25.86c-5.045-11.184-13.793-22.685-24.702-28.7
	c-11.446-6.314-28.589-5.196-32.646,9.479c-3.521,15.438,19.203,13.196,26.86,13.716C46.164,77.894,63.816,90.636,65.039,108.129z"
	/>
<path fill="#FFFFFF" d="M69.532,100.777c9.102-14.42,15.141-30.361,11.989-47.95c-1.148-6.421-4.01-13.026-7.695-18.369
	c-3.11-4.506-7.225-9.313-12.688-10.875c-4.936-1.411-11.614,0.228-15.253,3.901c-2.722,2.75-3.105,6.684-2.278,10.306
	c0.431,1.885,1.094,3.917,1.988,5.637c5.017,9.627,17.188,13.197,22.976,22.867C74.919,76.898,76.347,89.979,69.532,100.777z"/>
<path fill="#FFFFFF" d="M92.488,100.173c7.646-5.693,12.472-7.524,22.214-6.823c8.22,0.593,25.645,7.301,23.07-7.619
	c-1.607-9.333-12.226-8.23-19.031-6.197C107.372,82.925,101.558,93.418,92.488,100.173z"/>
<polygon opacity="0.96" fill="#1B75BB" enable-background="new    " points="74.273,120.83 32.802,97.26 32.673,145.536 
	74.273,168.998 "/>
<polygon opacity="0.96" fill="#0098CB" enable-background="new    " points="76.161,120.552 76.09,125.704 76.09,169.344 
	117.913,146.3 118.046,98.024 "/>
<g id="Layer_2">
</g>
<g>
	<path fill="#FFFFFF" d="M22.783,194.633v-18.484h5.459c1.979,0,3.482,0.408,4.507,1.227c1.023,0.817,1.536,2.021,1.536,3.614
		c0,0.956-0.261,1.788-0.781,2.495c-0.521,0.707-1.233,1.214-2.139,1.519c1.074,0.237,1.939,0.767,2.596,1.587
		s0.983,1.768,0.983,2.842c0,1.633-0.526,2.908-1.581,3.825c-1.054,0.918-2.52,1.377-4.398,1.377L22.783,194.633L22.783,194.633z
		 M24.344,184.438h4.266c1.304-0.024,2.313-0.333,3.028-0.922c0.715-0.59,1.073-1.448,1.073-2.575c0-1.188-0.37-2.062-1.111-2.627
		c-0.741-0.563-1.859-0.846-3.357-0.846h-3.897L24.344,184.438L24.344,184.438z M24.344,185.759v7.554h4.685
		c1.338,0,2.397-0.34,3.181-1.021s1.174-1.624,1.174-2.832c0-1.142-0.375-2.043-1.124-2.706s-1.784-0.995-3.104-0.995H24.344z"/>
	<path fill="#FFFFFF" d="M40.061,194.633h-1.522v-19.5h1.522V194.633z"/>
	<path fill="#FFFFFF" d="M43.349,187.561c0-1.319,0.256-2.51,0.769-3.566c0.512-1.058,1.235-1.881,2.171-2.47
		c0.935-0.589,1.995-0.883,3.18-0.883c1.828,0,3.309,0.642,4.443,1.924c1.134,1.281,1.7,2.98,1.7,5.098v0.316
		c0,1.329-0.256,2.524-0.768,3.586c-0.512,1.063-1.233,1.883-2.165,2.457c-0.932,0.575-1.993,0.863-3.187,0.863
		c-1.82,0-3.3-0.641-4.438-1.924c-1.138-1.281-1.708-2.98-1.708-5.097v-0.305H43.349z M44.873,187.98
		c0,1.643,0.425,2.99,1.275,4.043c0.852,1.056,1.967,1.581,3.346,1.581c1.371,0,2.481-0.525,3.333-1.581
		c0.851-1.053,1.275-2.442,1.275-4.17v-0.292c0-1.05-0.194-2.01-0.584-2.882c-0.389-0.872-0.935-1.547-1.638-2.025
		c-0.703-0.478-1.506-0.717-2.412-0.717c-1.354,0-2.458,0.531-3.313,1.595c-0.855,1.062-1.282,2.451-1.282,4.17L44.873,187.98
		L44.873,187.98z"/>
	<path fill="#FFFFFF" d="M63.827,193.604c1.058,0,1.943-0.298,2.659-0.896c0.716-0.597,1.104-1.368,1.162-2.316h1.46
		c-0.042,0.838-0.305,1.603-0.787,2.291c-0.481,0.69-1.123,1.229-1.923,1.619c-0.799,0.39-1.656,0.584-2.57,0.584
		c-1.804,0-3.231-0.626-4.285-1.879s-1.581-2.938-1.581-5.053v-0.457c0-1.354,0.237-2.553,0.711-3.593
		c0.474-1.041,1.153-1.846,2.038-2.412c0.885-0.567,1.919-0.852,3.104-0.852c1.506,0,2.749,0.448,3.727,1.346
		c0.977,0.898,1.5,2.078,1.567,3.543h-1.46c-0.067-1.075-0.455-1.942-1.162-2.604s-1.598-0.99-2.672-0.99
		c-1.371,0-2.436,0.495-3.192,1.485s-1.137,2.378-1.137,4.164v0.444c0,1.752,0.38,3.118,1.137,4.101
		C61.379,193.112,62.448,193.604,63.827,193.604z"/>
	<path fill="#FFFFFF" d="M75.405,187.714l-1.738,1.676v5.243h-1.523v-19.5h1.523v12.479l1.435-1.549l5.256-5.167h1.917l-5.827,5.789
		l6.336,7.947h-1.815L75.405,187.714z"/>
	<path fill="#FFFFFF" d="M86.793,187.104v7.528h-1.563v-18.484h6.297c1.922,0,3.438,0.491,4.552,1.474
		c1.112,0.98,1.67,2.332,1.67,4.05c0,1.735-0.535,3.074-1.605,4.019c-1.07,0.943-2.622,1.415-4.652,1.415L86.793,187.104
		L86.793,187.104z M86.793,185.784h4.734c1.516,0,2.671-0.36,3.467-1.081s1.192-1.726,1.192-3.015c0-1.278-0.396-2.299-1.187-3.058
		c-0.792-0.758-1.915-1.146-3.371-1.163h-4.837L86.793,185.784L86.793,185.784z"/>
	<path fill="#FFFFFF" d="M109.416,194.633c-0.152-0.432-0.25-1.07-0.292-1.917c-0.533,0.694-1.213,1.229-2.037,1.606
		c-0.826,0.376-1.699,0.563-2.622,0.563c-1.32,0-2.389-0.368-3.206-1.104c-0.816-0.736-1.225-1.667-1.225-2.793
		c0-1.338,0.557-2.396,1.67-3.175c1.111-0.777,2.663-1.168,4.651-1.168h2.755v-1.562c0-0.981-0.303-1.754-0.906-2.316
		c-0.605-0.563-1.488-0.845-2.647-0.845c-1.058,0-1.934,0.271-2.628,0.812s-1.041,1.193-1.041,1.955l-1.522-0.013
		c0-1.092,0.508-2.037,1.522-2.838c1.016-0.799,2.264-1.199,3.745-1.199c1.532,0,2.74,0.383,3.624,1.148
		c0.885,0.767,1.34,1.835,1.365,3.206v6.5c0,1.329,0.14,2.322,0.419,2.982v0.152h-1.625V194.633z M104.642,193.541
		c1.017,0,1.923-0.245,2.725-0.736c0.799-0.491,1.381-1.146,1.744-1.968v-3.021h-2.717c-1.515,0.018-2.7,0.294-3.555,0.831
		c-0.854,0.538-1.282,1.276-1.282,2.217c0,0.771,0.285,1.408,0.857,1.917C102.985,193.287,103.728,193.541,104.642,193.541z"/>
	<path fill="#FFFFFF" d="M121.019,182.191c-0.32-0.06-0.664-0.089-1.027-0.089c-0.948,0-1.75,0.266-2.405,0.794
		c-0.656,0.528-1.124,1.297-1.403,2.305v9.433h-1.511v-13.736h1.485l0.024,2.185c0.804-1.625,2.095-2.438,3.872-2.438
		c0.423,0,0.758,0.056,1.003,0.165L121.019,182.191z"/>
	<path fill="#FFFFFF" d="M126.415,177.38v3.517h2.844v1.244h-2.844v9.163c0,0.763,0.138,1.331,0.412,1.703
		c0.274,0.373,0.733,0.56,1.378,0.56c0.254,0,0.664-0.042,1.23-0.127l0.063,1.233c-0.397,0.143-0.939,0.214-1.625,0.214
		c-1.041,0-1.799-0.303-2.272-0.908c-0.474-0.604-0.711-1.495-0.711-2.672v-9.166h-2.525v-1.244h2.525v-3.517H126.415z"/>
	<path fill="#FFFFFF" d="M136.761,192.449l4.012-11.554h1.639l-5.865,16.072l-0.305,0.711c-0.754,1.667-1.917,2.501-3.491,2.501
		c-0.364,0-0.753-0.06-1.168-0.178l-0.014-1.257l0.787,0.076c0.745,0,1.349-0.185,1.81-0.554c0.462-0.367,0.854-1,1.175-1.896
		l0.673-1.854l-5.18-13.622h1.663L136.761,192.449z"/>
</g>
</svg>
