<?xml version="1.0" encoding="utf-8"?>
<!-- Generator: Adobe Illustrator 16.0.0, SVG Export Plug-In . SVG Version: 6.00 Build 0)  -->
<!DOCTYPE svg PUBLIC "-//W3C//DTD SVG 1.1//EN" "http://www.w3.org/Graphics/SVG/1.1/DTD/svg11.dtd">
<svg version="1.1" id="Layer_1" xmlns="http://www.w3.org/2000/svg" xmlns:xlink="http://www.w3.org/1999/xlink" x="0px" y="0px"
	 width="165.376px" height="178.26px" viewBox="0 0 165.376 178.26" enable-background="new 0 0 165.376 178.26"
	 xml:space="preserve">
<path fill="#C8005A" d="M82.891,82.177c-0.93-4.606,5.175-13.686,7.359-17.154c6.92-10.981,17.299-19.845,29.429-24.541
	c12.203-4.726,26.397-2.304,37.994-8.58c11.787-6.38,9.101-23.31-1.663-29.446c-6.318-3.602-15.569-2.83-22.198-0.329
	C108.353,11.735,76.708,51.517,82.891,82.177z"/>
<path fill="#C8005A" d="M62.78,87.153c-0.627-8.954-1.279-17.464-5.064-25.862c-5.045-11.182-13.793-22.683-24.703-28.7
	c-11.447-6.315-28.588-5.197-32.645,9.48c-3.52,15.438,19.203,13.196,26.861,13.716C43.905,56.917,61.557,69.662,62.78,87.153z"/>
<path fill="#555555" d="M67.273,79.801c9.102-14.42,15.141-30.362,11.99-47.951c-1.149-6.421-4.009-13.026-7.697-18.369
	c-3.11-4.506-7.222-9.314-12.685-10.875c-4.936-1.411-11.615,0.226-15.253,3.902c-2.722,2.75-3.106,6.683-2.279,10.305
	c0.43,1.885,1.093,3.917,1.989,5.637c5.016,9.627,17.188,13.197,22.975,22.867C72.66,55.921,74.089,69.002,67.273,79.801z"/>
<path fill="#555555" d="M90.228,79.197c7.648-5.695,12.472-7.526,22.213-6.824c8.22,0.592,25.645,7.3,23.072-7.62
	c-1.609-9.333-12.225-8.231-19.033-6.198C105.113,61.949,99.3,72.442,90.228,79.197z"/>
<g>
	<path fill="#555555" d="M28.459,165.744c0,2.184-0.483,3.916-1.45,5.197c-0.967,1.281-2.265,1.922-3.896,1.922
		c-1.95,0-3.426-0.725-4.427-2.175l-0.064,1.916h-1.45v-19.881h1.54v7.908c0.984-1.527,2.442-2.291,4.375-2.291
		c1.657,0,2.966,0.632,3.928,1.896c0.962,1.264,1.443,3.022,1.443,5.274V165.744z M26.906,165.472c0-1.847-0.358-3.272-1.074-4.277
		c-0.716-1.006-1.726-1.508-3.029-1.508c-0.993,0-1.834,0.243-2.524,0.73c-0.69,0.488-1.212,1.202-1.566,2.143v6.316
		c0.777,1.76,2.148,2.641,4.116,2.641c1.277,0,2.276-0.505,2.996-1.515C26.546,168.993,26.906,167.483,26.906,165.472z"/>
	<path fill="#555555" d="M33.61,172.604h-1.553v-19.881h1.553V172.604z"/>
	<path fill="#555555" d="M36.963,165.395c0-1.347,0.261-2.559,0.783-3.638c0.522-1.078,1.26-1.917,2.213-2.518
		c0.954-0.6,2.034-0.899,3.243-0.899c1.864,0,3.374,0.653,4.53,1.961s1.734,3.04,1.734,5.197v0.323c0,1.354-0.261,2.573-0.783,3.656
		c-0.522,1.083-1.258,1.918-2.207,2.505s-2.032,0.88-3.249,0.88c-1.855,0-3.363-0.653-4.524-1.961s-1.741-3.039-1.741-5.196V165.395
		z M38.517,165.822c0,1.674,0.434,3.048,1.301,4.122s2.004,1.611,3.411,1.611c1.397,0,2.53-0.537,3.397-1.611
		s1.301-2.491,1.301-4.252v-0.297c0-1.07-0.199-2.05-0.595-2.938c-0.397-0.889-0.954-1.577-1.67-2.064s-1.536-0.731-2.459-0.731
		c-1.381,0-2.507,0.542-3.378,1.624c-0.872,1.083-1.307,2.501-1.307,4.252V165.822z"/>
	<path fill="#555555" d="M57.84,171.555c1.079,0,1.982-0.304,2.712-0.912c0.729-0.608,1.124-1.396,1.184-2.362h1.489
		c-0.043,0.854-0.311,1.633-0.803,2.337c-0.492,0.703-1.146,1.253-1.961,1.649c-0.815,0.397-1.689,0.596-2.621,0.596
		c-1.838,0-3.294-0.639-4.368-1.916c-1.074-1.276-1.611-2.994-1.611-5.151v-0.466c0-1.38,0.241-2.602,0.725-3.663
		c0.483-1.061,1.176-1.881,2.078-2.459c0.901-0.578,1.957-0.867,3.165-0.867c1.536,0,2.802,0.458,3.799,1.372
		c0.997,0.915,1.529,2.118,1.599,3.611h-1.489c-0.069-1.096-0.464-1.98-1.184-2.653c-0.721-0.673-1.629-1.01-2.725-1.01
		c-1.398,0-2.483,0.505-3.255,1.515s-1.158,2.425-1.158,4.245v0.453c0,1.786,0.386,3.18,1.158,4.181S56.434,171.555,57.84,171.555z"
		/>
	<path fill="#555555" d="M69.645,165.55l-1.773,1.708v5.346h-1.553v-19.881h1.553v12.724l1.463-1.579l5.358-5.269h1.954
		l-5.941,5.902l6.458,8.103h-1.851L69.645,165.55z"/>
	<path fill="#555555" d="M90.561,165.744c0,2.184-0.482,3.916-1.449,5.197s-2.261,1.922-3.883,1.922c-1.916,0-3.383-0.673-4.4-2.02
		v7.146h-1.541v-19.39h1.438l0.077,1.98c1.01-1.492,2.472-2.239,4.388-2.239c1.674,0,2.988,0.635,3.941,1.902
		c0.953,1.269,1.43,3.029,1.43,5.281V165.744z M89.008,165.472c0-1.786-0.367-3.197-1.1-4.232c-0.734-1.035-1.756-1.553-3.068-1.553
		c-0.949,0-1.765,0.229-2.445,0.686c-0.683,0.457-1.205,1.122-1.566,1.993v6.718c0.371,0.803,0.901,1.415,1.592,1.838
		c0.689,0.423,1.506,0.634,2.446,0.634c1.303,0,2.319-0.52,3.048-1.56C88.643,168.957,89.008,167.449,89.008,165.472z"/>
	<path fill="#555555" d="M102.832,172.604c-0.155-0.44-0.255-1.092-0.298-1.954c-0.543,0.707-1.236,1.253-2.077,1.637
		c-0.842,0.384-1.732,0.576-2.673,0.576c-1.346,0-2.436-0.375-3.268-1.126c-0.834-0.751-1.25-1.7-1.25-2.848
		c0-1.363,0.568-2.441,1.703-3.235c1.134-0.794,2.715-1.191,4.743-1.191h2.809v-1.592c0-1.001-0.309-1.788-0.926-2.362
		c-0.617-0.573-1.517-0.86-2.698-0.86c-1.079,0-1.973,0.276-2.68,0.828c-0.707,0.553-1.061,1.217-1.061,1.993l-1.554-0.013
		c0-1.113,0.518-2.077,1.554-2.893c1.035-0.815,2.308-1.224,3.817-1.224c1.563,0,2.794,0.391,3.695,1.172
		c0.902,0.78,1.366,1.87,1.392,3.268v6.627c0,1.355,0.143,2.369,0.428,3.042v0.155H102.832z M97.965,171.491
		c1.035,0,1.961-0.25,2.776-0.751c0.815-0.5,1.408-1.169,1.779-2.006v-3.08h-2.77c-1.545,0.017-2.753,0.3-3.624,0.848
		c-0.872,0.548-1.308,1.301-1.308,2.259c0,0.785,0.291,1.437,0.874,1.954C96.276,171.232,97.034,171.491,97.965,171.491z"/>
	<path fill="#555555" d="M114.663,159.919c-0.328-0.061-0.678-0.091-1.049-0.091c-0.967,0-1.784,0.271-2.453,0.81
		c-0.668,0.539-1.146,1.322-1.43,2.349v9.617h-1.54v-14.005h1.514l0.026,2.227c0.819-1.657,2.136-2.485,3.947-2.485
		c0.432,0,0.772,0.057,1.022,0.168L114.663,159.919z"/>
	<path fill="#555555" d="M120.163,155.014v3.585h2.899v1.269h-2.899v9.343c0,0.777,0.14,1.356,0.421,1.736
		c0.28,0.38,0.748,0.57,1.404,0.57c0.259,0,0.677-0.043,1.255-0.13l0.065,1.258c-0.406,0.146-0.958,0.218-1.657,0.218
		c-1.062,0-1.834-0.309-2.316-0.926c-0.483-0.616-0.726-1.524-0.726-2.725v-9.345h-2.575v-1.269h2.575v-3.585H120.163z"/>
	<path fill="#555555" d="M130.711,170.377l4.09-11.778h1.67l-5.98,16.387l-0.311,0.725c-0.768,1.7-1.954,2.55-3.56,2.55
		c-0.371,0-0.768-0.061-1.19-0.182l-0.013-1.281l0.803,0.078c0.759,0,1.374-0.188,1.844-0.563c0.471-0.375,0.869-1.021,1.197-1.935
		l0.687-1.89l-5.281-13.889h1.695L130.711,170.377z"/>
</g>
<polygon opacity="0.96" fill="#1B75BB" points="72.014,99.854 30.542,76.285 30.414,124.56 72.014,148.022 "/>
<polygon opacity="0.96" fill="#0098CB" points="73.902,99.576 73.831,104.728 73.831,148.369 115.654,125.324 115.787,77.047 "/>
</svg>
