<?xml version="1.0" encoding="utf-8"?>
<!-- Generator: Adobe Illustrator 15.0.0, SVG Export Plug-In . SVG Version: 6.00 Build 0)  -->
<!DOCTYPE svg PUBLIC "-//W3C//DTD SVG 1.1//EN" "http://www.w3.org/Graphics/SVG/1.1/DTD/svg11.dtd">
<svg version="1.1" id="Layer_1" xmlns="http://www.w3.org/2000/svg" xmlns:xlink="http://www.w3.org/1999/xlink" x="0px" y="0px"
	 width="169.894px" height="201.265px" viewBox="33.792 40.031 169.894 201.265"
	 enable-background="new 33.792 40.031 169.894 201.265" xml:space="preserve">
<g id="Layer_1_1_">
	<path fill="#C8005A" d="M118.682,134.235c-0.93-4.606,5.176-13.687,7.359-17.154c6.92-10.98,17.299-19.845,29.429-24.541
		c12.203-4.726,26.397-2.304,37.994-8.58c11.787-6.38,9.101-23.31-1.663-29.446c-6.318-3.602-15.568-2.829-22.197-0.328
		C144.145,63.793,112.5,103.575,118.682,134.235z"/>
	<path fill="#C8005A" d="M98.571,139.211c-0.627-8.954-1.279-17.464-5.064-25.861c-5.045-11.183-13.793-22.684-24.703-28.7
		c-11.447-6.315-28.588-5.197-32.645,9.479c-3.52,15.438,19.203,13.196,26.861,13.716C79.696,108.976,97.348,121.719,98.571,139.211
		z"/>
	<path fill="#555555" d="M103.064,131.859c9.102-14.42,15.141-30.362,11.99-47.951c-1.149-6.421-4.009-13.026-7.696-18.369
		c-3.11-4.506-7.223-9.313-12.686-10.875c-4.936-1.411-11.615,0.227-15.253,3.902c-2.722,2.75-3.106,6.683-2.279,10.305
		c0.43,1.885,1.093,3.917,1.989,5.637c5.016,9.627,17.188,13.197,22.975,22.867C108.451,107.98,109.88,121.061,103.064,131.859z"/>
	<path fill="#555555" d="M126.02,131.255c7.647-5.694,12.471-7.525,22.213-6.824c8.22,0.593,25.645,7.301,23.071-7.619
		c-1.608-9.333-12.225-8.231-19.032-6.198C140.904,114.007,135.091,124.5,126.02,131.255z"/>
	<g enable-background="new    ">
		<path fill="#555555" d="M53.339,224.662v-18.846h5.566c2.019,0,3.551,0.417,4.595,1.25s1.566,2.062,1.566,3.685
			c0,0.976-0.266,1.824-0.796,2.545c-0.53,0.721-1.257,1.237-2.181,1.548c1.096,0.241,1.978,0.78,2.647,1.617
			c0.668,0.836,1.003,1.802,1.003,2.897c0,1.664-0.537,2.965-1.611,3.9s-2.569,1.403-4.485,1.403H53.339z M54.931,214.268h4.349
			c1.329-0.025,2.357-0.339,3.087-0.939c0.729-0.602,1.094-1.477,1.094-2.626c0-1.211-0.378-2.104-1.133-2.678
			c-0.755-0.575-1.896-0.862-3.423-0.862h-3.974V214.268z M54.931,215.614v7.702h4.776c1.363,0,2.444-0.347,3.243-1.04
			c0.798-0.694,1.197-1.656,1.197-2.889c0-1.163-0.382-2.082-1.146-2.759c-0.764-0.676-1.819-1.015-3.165-1.015H54.931z"/>
		<path fill="#555555" d="M70.955,224.662h-1.553v-19.881h1.553V224.662z"/>
		<path fill="#555555" d="M74.308,217.453c0-1.347,0.261-2.559,0.783-3.638c0.522-1.078,1.26-1.917,2.213-2.518
			c0.954-0.6,2.034-0.899,3.243-0.899c1.864,0,3.374,0.653,4.53,1.961s1.734,3.04,1.734,5.197v0.323
			c0,1.354-0.261,2.573-0.783,3.656c-0.522,1.083-1.258,1.918-2.207,2.505s-2.032,0.88-3.249,0.88c-1.855,0-3.363-0.653-4.524-1.961
			s-1.741-3.039-1.741-5.196V217.453z M75.861,217.88c0,1.674,0.434,3.048,1.301,4.122s2.004,1.611,3.411,1.611
			c1.397,0,2.53-0.537,3.397-1.611s1.301-2.491,1.301-4.252v-0.297c0-1.07-0.199-2.05-0.595-2.938
			c-0.397-0.889-0.954-1.577-1.67-2.064s-1.536-0.731-2.459-0.731c-1.381,0-2.507,0.542-3.378,1.624
			c-0.872,1.083-1.307,2.501-1.307,4.252V217.88z"/>
		<path fill="#555555" d="M95.185,223.613c1.079,0,1.982-0.304,2.712-0.912c0.729-0.608,1.124-1.396,1.184-2.362h1.489
			c-0.043,0.854-0.311,1.633-0.803,2.337c-0.492,0.703-1.146,1.253-1.961,1.649c-0.815,0.397-1.689,0.596-2.621,0.596
			c-1.838,0-3.294-0.639-4.368-1.916c-1.074-1.276-1.611-2.994-1.611-5.151v-0.466c0-1.38,0.241-2.602,0.725-3.663
			c0.483-1.061,1.176-1.881,2.078-2.459c0.901-0.578,1.957-0.867,3.165-0.867c1.536,0,2.802,0.458,3.799,1.372
			c0.997,0.915,1.529,2.118,1.599,3.611h-1.489c-0.069-1.096-0.464-1.98-1.184-2.653c-0.721-0.673-1.629-1.01-2.725-1.01
			c-1.398,0-2.483,0.505-3.255,1.515s-1.158,2.425-1.158,4.245v0.453c0,1.786,0.386,3.18,1.158,4.181S93.778,223.613,95.185,223.613
			z"/>
		<path fill="#555555" d="M106.989,217.608l-1.773,1.708v5.346h-1.553v-19.881h1.553v12.724l1.463-1.579l5.358-5.269h1.955
			l-5.941,5.902l6.459,8.103h-1.852L106.989,217.608z"/>
		<path fill="#555555" d="M118.6,216.986v7.676h-1.593v-18.846h6.42c1.959,0,3.505,0.501,4.64,1.502s1.703,2.377,1.703,4.129
			c0,1.769-0.547,3.134-1.638,4.097c-1.092,0.962-2.673,1.442-4.743,1.442H118.6z M118.6,215.64h4.827
			c1.545,0,2.723-0.367,3.534-1.102c0.811-0.734,1.217-1.759,1.217-3.072c0-1.306-0.404-2.345-1.211-3.118s-1.952-1.169-3.437-1.186
			H118.6V215.64z"/>
		<path fill="#555555" d="M141.664,224.662c-0.155-0.44-0.254-1.092-0.298-1.954c-0.544,0.707-1.235,1.253-2.077,1.637
			s-1.732,0.576-2.673,0.576c-1.347,0-2.436-0.375-3.269-1.126c-0.832-0.751-1.248-1.7-1.248-2.848c0-1.363,0.566-2.441,1.701-3.235
			s2.717-1.191,4.744-1.191h2.809v-1.592c0-1.001-0.309-1.788-0.926-2.362c-0.617-0.573-1.516-0.86-2.698-0.86
			c-1.079,0-1.972,0.276-2.679,0.828c-0.709,0.553-1.062,1.217-1.062,1.993l-1.553-0.013c0-1.113,0.518-2.077,1.553-2.893
			c1.036-0.815,2.309-1.224,3.818-1.224c1.562,0,2.794,0.391,3.695,1.172c0.902,0.78,1.365,1.87,1.392,3.268v6.627
			c0,1.355,0.143,2.369,0.427,3.042v0.155H141.664z M136.797,223.549c1.036,0,1.961-0.25,2.777-0.751
			c0.814-0.5,1.408-1.169,1.779-2.006v-3.08h-2.77c-1.545,0.017-2.753,0.3-3.625,0.848c-0.871,0.548-1.307,1.301-1.307,2.259
			c0,0.785,0.291,1.437,0.873,1.954C135.108,223.29,135.865,223.549,136.797,223.549z"/>
		<path fill="#555555" d="M153.494,211.977c-0.328-0.061-0.678-0.091-1.049-0.091c-0.966,0-1.783,0.271-2.452,0.81
			s-1.146,1.322-1.431,2.349v9.617h-1.54v-14.005h1.515l0.025,2.227c0.82-1.657,2.136-2.485,3.948-2.485
			c0.431,0,0.772,0.057,1.022,0.168L153.494,211.977z"/>
		<path fill="#555555" d="M158.996,207.072v3.585h2.898v1.269h-2.898v9.343c0,0.777,0.14,1.356,0.42,1.736s0.748,0.57,1.404,0.57
			c0.259,0,0.678-0.043,1.256-0.13l0.064,1.258c-0.406,0.146-0.957,0.218-1.656,0.218c-1.062,0-1.834-0.309-2.317-0.926
			c-0.483-0.616-0.725-1.524-0.725-2.725v-9.345h-2.575v-1.269h2.575v-3.585H158.996z"/>
		<path fill="#555555" d="M169.544,222.435l4.091-11.778h1.669l-5.979,16.387l-0.311,0.725c-0.768,1.7-1.955,2.55-3.56,2.55
			c-0.371,0-0.769-0.061-1.19-0.182l-0.014-1.281l0.803,0.078c0.76,0,1.374-0.188,1.845-0.563c0.47-0.375,0.869-1.021,1.197-1.935
			l0.686-1.89l-5.28-13.889h1.695L169.544,222.435z"/>
	</g>
	<polygon opacity="0.96" fill="#1B75BB" enable-background="new    " points="107.805,151.912 66.334,128.343 66.205,176.618 
		107.805,200.08 	"/>
	<polygon opacity="0.96" fill="#0098CB" enable-background="new    " points="109.693,151.634 109.622,156.786 109.622,200.427 
		151.445,177.382 151.578,129.106 	"/>
</g>
<g id="Layer_2">
</g>
</svg>
